<svg xmlns="http://www.w3.org/2000/svg" viewBox="0 0 900 520" role="img" aria-labelledby="heroImgTitle">
  <title id="heroImgTitle">80;>3 2 Telegram 8 A45;:0 2 8B@8:A24</title>
  <defs>
    <linearGradient id="bg" x1="0" y1="0" x2="1" y2="1">
      <stop offset="0%" stop-color="#1a2332"/>
      <stop offset="100%" stop-color="#0f1720"/>
    </linearGradient>
  </defs>
  <rect width="900" height="520" rx="20" fill="url(#bg)"/>
  <rect x="40" y="40" width="380" height="440" rx="16" fill="#243044" stroke="#3d4f66"/>
  <text x="60" y="75" fill="#94a3b8" font-family="system-ui,sans-serif" font-size="13">Telegram · 23:14</text>
  <rect x="60" y="95" width="260" height="44" rx="12" fill="#334155"/>
  <text x="76" y="122" fill="#e2e8f0" font-family="system-ui,sans-serif" font-size="14">4@02AB2C9B5, 8=B5@5AC5B :20@B8@0</text>
  <rect x="120" y="155" width="280" height="52" rx="12" fill="#0d9488"/>
  <text x="136" y="178" fill="#f8fafc" font-family="system-ui,sans-serif" font-size="13">Datagent: CB>G=N 1N465B 8 A@>:,</text>
  <text x="136" y="196" fill="#f8fafc" font-family="system-ui,sans-serif" font-size="13">?5@540< <5=5465@C A 1@8D><</text>
  <rect x="60" y="225" width="220" height="40" rx="12" fill="#334155"/>
  <text x="76" y="250" fill="#e2e8f0" font-family="system-ui,sans-serif" font-size="14">> 12 <;=, 2 B5G5=85 <5AOF0</text>
  <rect x="480" y="80" width="380" height="400" rx="16" fill="#f8fafc" stroke="#cbd5e1"/>
  <text x="500" y="115" fill="#64748b" font-family="system-ui,sans-serif" font-size="13" font-weight="600">8B@8:A24 · >20O A45;:0</text>
  <rect x="500" y="135" width="340" height="72" rx="10" fill="#ecfdf5" stroke="#0d9488" stroke-width="2"/>
  <text x="520" y="165" fill="#0f172a" font-family="system-ui,sans-serif" font-size="15" font-weight="600">84: :20@B8@0 · Telegram</text>
  <text x="520" y="188" fill="#475569" font-family="system-ui,sans-serif" font-size="13">!B0BCA: 20;8D8:0F8O · 5=5465@: ;5:A59</text>
  <rect x="500" y="225" width="160" height="28" rx="6" fill="#e2e8f0"/>
  <rect x="500" y="265" width="280" height="12" rx="4" fill="#e2e8f0"/>
  <rect x="500" y="290" width="240" height="12" rx="4" fill="#e2e8f0"/>
  <rect x="500" y="330" width="120" height="32" rx="8" fill="#0d9488"/>
  <text x="520" y="352" fill="#fff" font-family="system-ui,sans-serif" font-size="12">040G0 A>740=0</text>
  <path d="M420 200 L480 200" stroke="#0d9488" stroke-width="2" stroke-dasharray="6 4"/>
  <polygon points="480,200 472,196 472,204" fill="#0d9488"/>
</svg>
