<svg xmlns="http://www.w3.org/2000/svg" viewBox="0 0 800 500" role="img" aria-labelledby="heroTitle heroDesc">
  <title id="heroTitle">=B5@D59A >@:5AB@0B>@0 Datagent</title>
  <desc id="heroDesc">!E5<0B8G=K9 M:@0= A ?09?;09=>< 8 035=B0<8</desc>
  <defs>
    <linearGradient id="bg" x1="0" y1="0" x2="1" y2="1">
      <stop offset="0%" stop-color="#f9f8f5"/>
      <stop offset="100%" stop-color="#e8f4f2"/>
    </linearGradient>
  </defs>
  <rect width="800" height="500" rx="24" fill="url(#bg)"/>
  <rect x="40" y="40" width="720" height="56" rx="12" fill="#fff" stroke="#dbe4ef"/>
  <circle cx="68" cy="68" r="8" fill="#0d9488"/>
  <rect x="92" y="58" width="180" height="20" rx="6" fill="#e8ecef"/>
  <rect x="40" y="120" width="220" height="340" rx="16" fill="#fff" stroke="#dbe4ef"/>
  <rect x="60" y="150" width="160" height="12" rx="4" fill="#0d9488" opacity=".25"/>
  <rect x="60" y="180" width="140" height="10" rx="4" fill="#7a7974" opacity=".35"/>
  <rect x="60" y="210" width="150" height="10" rx="4" fill="#7a7974" opacity=".35"/>
  <rect x="60" y="250" width="120" height="36" rx="8" fill="#ccfbf1"/>
  <rect x="280" y="120" width="480" height="160" rx="16" fill="#fff" stroke="#dbe4ef"/>
  <text x="300" y="155" font-family="system-ui,sans-serif" font-size="14" fill="#28251d" font-weight="600">@:5AB@0B>@ · 3 035=B0 0:B82=K</text>
  <rect x="300" y="175" width="200" height="80" rx="10" fill="#f7f6f2" stroke="#0d9488" stroke-width="2"/>
  <rect x="520" y="175" width="200" height="80" rx="10" fill="#f7f6f2"/>
  <rect x="300" y="300" width="440" height="160" rx="16" fill="#fff" stroke="#dbe4ef"/>
  <rect x="320" y="330" width="380" height="12" rx="4" fill="#f59e0b" opacity=".5"/>
  <rect x="320" y="360" width="300" height="12" rx="4" fill="#0d9488" opacity=".4"/>
  <rect x="320" y="390" width="340" height="12" rx="4" fill="#7a7974" opacity=".3"/>
</svg>
