<?xml version="1.0" encoding="utf-8"?>
<svg xmlns="http://www.w3.org/2000/svg" viewBox="367.7 204.5 292.3 430.7" width="512" height="512" aria-label="Datagent">
  <rect x="367.7" y="204.5" width="292.3" height="430.7" fill="#0b6b6b" rx="80"/>
  <path fill="#ffffff" opacity="1.000000" stroke="none" d=" M423.678528,470.999939   C423.679443,429.500305 423.647552,388.500641 423.694672,347.501068   C423.721497,324.180634 438.745880,305.388550 461.339294,300.216949   C490.479889,293.546722 519.187317,316.007324 519.257690,345.927002   C519.412476,411.759247 519.418213,477.592346 519.277771,543.424622   C519.215210,572.787292 497.756531,598.607483 468.728027,604.955139   C440.316345,611.167908 411.038452,596.453186 398.353058,569.702942   C393.920807,560.356506 391.708008,550.569458 391.708008,540.254883   C391.708069,463.922272 391.674225,387.589600 391.727020,311.257019   C391.753937,272.284668 417.753357,240.148575 455.806854,232.194382   C473.573792,228.480621 491.001801,231.564423 508.040894,236.514969   C567.032471,253.654419 604.508301,292.748993 623.215698,350.602600   C629.180115,369.047974 632.115356,388.051331 633.496643,407.399292   C636.008301,442.581635 632.135559,476.882202 620.069214,510.056396   C609.162781,540.041382 591.814819,565.517151 565.331177,583.982788   C546.324036,597.235413 524.973816,604.203735 501.930481,606.074097   C500.514923,606.188965 498.960999,606.640198 497.395355,605.181946   C499.971344,601.458496 504.485901,599.806396 507.122559,596.304993   C512.187683,589.578613 519.166687,586.759521 527.055115,584.350403   C552.769043,576.497498 572.383362,560.228699 587.271057,538.091736   C603.901184,513.363892 612.305725,485.728729 615.834167,456.401733   C620.046814,421.388519 617.480652,386.934326 606.656372,353.308350   C595.752930,319.436829 576.648132,291.434021 546.505615,271.659515   C544.308655,270.218262 541.976379,268.983337 538.321716,266.840149   C544.155029,276.750671 548.118713,285.806885 549.646790,295.758453   C550.429749,300.857483 551.247314,305.945404 551.246887,311.125580   C551.241455,373.958282 551.245544,436.791016 551.219666,499.623718   C551.218994,501.271820 551.151855,502.991547 550.692322,504.553284   C549.660278,508.060150 547.414429,510.241089 543.497559,510.341980   C539.490234,510.445221 536.862122,508.683319 535.461609,504.927643   C534.495056,502.335663 534.762146,499.662811 534.761597,497.012238   C534.749329,435.012848 534.839233,373.013275 534.721741,311.014099   C534.664795,280.946594 514.743896,256.033203 485.595490,248.991211   C450.107910,240.417725 414.301270,264.814575 409.228455,300.973907   C408.788849,304.107513 408.284760,307.204254 408.285614,310.391174   C408.306213,387.057098 408.143463,463.723480 408.387238,540.388611   C408.450562,560.304443 417.452850,575.746887 435.439117,584.921997   C464.634644,599.815125 501.733368,578.334167 502.594025,545.563232   C503.416321,514.252075 502.852722,482.904175 502.870789,451.572418   C502.890686,417.072754 502.944244,382.572937 502.850647,348.073547   C502.811035,333.473785 494.475403,321.757233 481.482483,317.429260   C461.153870,310.657745 440.449249,325.143768 440.343231,346.767609   C440.098083,396.765900 440.231842,446.766052 440.204437,496.765442   C440.203339,498.764008 440.306183,500.786133 440.048553,502.756500   C439.375122,507.907104 436.147064,510.605438 431.270599,510.314178   C426.800110,510.047150 423.842499,507.023956 423.762695,501.994659   C423.601379,491.831879 423.692078,481.665070 423.678528,470.999939  z"/>
</svg>