<?xml version='1.0' encoding='utf-8'?>
<svg xmlns="http://www.w3.org/2000/svg" xmlns:xlink="http://www.w3.org/1999/xlink" id="Layer_1" x="0px" y="0px" width="1024" height="1024" viewBox="0 0 1024 1024">
<rect width="1024" height="1024" fill="#0b6b6b"/>

<path fill="#ffffff" opacity="1.000000" stroke="none" d=" M10.468657,1025.000000   C12.161056,1023.774414 14.546575,1024.098145 16.853798,1024.095337   C120.352768,1023.965942 223.851746,1023.766296 327.350739,1023.769165   C545.016479,1023.775330 762.682190,1023.890930 980.347900,1023.953918   C992.847107,1023.957520 1005.349548,1023.717163 1017.843811,1023.949890   C1022.623413,1024.038818 1024.131714,1022.520142 1024.102295,1017.668884   C1023.923950,988.338074 1024.038818,959.005371 1024.098633,929.673401   C1024.103394,927.357361 1024.434570,925.041992 1024.807007,922.363159   C1025.000000,956.319885 1025.000000,990.639832 1025.000000,1025.000000   C686.979126,1025.000000 348.958221,1025.000000 10.468657,1025.000000  z"/>
<path fill="#ffffff" opacity="1.000000" stroke="none" d=" M1.000000,899.468628   C2.156022,900.992981 1.902544,903.201416 1.905137,905.347595   C1.950018,942.500183 1.968406,979.652771 2.011786,1016.805359   C2.014689,1019.291565 1.785856,1021.814392 2.853746,1024.610352   C2.024081,1024.919678 0.780848,1025.554565 0.940565,1023.507385   C1.172412,1020.535706 1.000000,1017.532593 1.000000,1014.542847   C1.000000,976.341003 1.000000,938.139160 1.000000,899.468628  z"/>
<path fill="#ffffff" opacity="1.000000" stroke="none" d=" M1025.000000,139.531342   C1024.002563,138.339233 1024.061646,136.481186 1024.061401,134.655304   C1024.056885,101.158997 1024.060425,67.662682 1024.096680,34.166409   C1024.098267,32.685169 1024.428711,31.204296 1024.802979,29.361626   C1025.000000,65.687561 1025.000000,102.375122 1025.000000,139.531342  z"/>
<path fill="#ffffff" opacity="1.000000" stroke="none" d=" M1.000000,49.468658   C1.812795,50.345570 1.875635,51.849880 1.876471,53.352066   C1.888618,75.177322 1.898784,97.002594 1.873946,118.827820   C1.872639,119.976250 1.554699,121.124313 1.192082,122.636276   C1.000000,98.645775 1.000000,74.291542 1.000000,49.468658  z"/>
<path fill="#ffffff" opacity="1.000000" stroke="none" d=" M423.678528,470.999939   C423.679443,429.500305 423.647552,388.500641 423.694672,347.501068   C423.721497,324.180634 438.745880,305.388550 461.339294,300.216949   C490.479889,293.546722 519.187317,316.007324 519.257690,345.927002   C519.412476,411.759247 519.418213,477.592346 519.277771,543.424622   C519.215210,572.787292 497.756531,598.607483 468.728027,604.955139   C440.316345,611.167908 411.038452,596.453186 398.353058,569.702942   C393.920807,560.356506 391.708008,550.569458 391.708008,540.254883   C391.708069,463.922272 391.674225,387.589600 391.727020,311.257019   C391.753937,272.284668 417.753357,240.148575 455.806854,232.194382   C473.573792,228.480621 491.001801,231.564423 508.040894,236.514969   C567.032471,253.654419 604.508301,292.748993 623.215698,350.602600   C629.180115,369.047974 632.115356,388.051331 633.496643,407.399292   C636.008301,442.581635 632.135559,476.882202 620.069214,510.056396   C609.162781,540.041382 591.814819,565.517151 565.331177,583.982788   C546.324036,597.235413 524.973816,604.203735 501.930481,606.074097   C500.514923,606.188965 498.960999,606.640198 497.395355,605.181946   C499.971344,601.458496 504.485901,599.806396 507.122559,596.304993   C512.187683,589.578613 519.166687,586.759521 527.055115,584.350403   C552.769043,576.497498 572.383362,560.228699 587.271057,538.091736   C603.901184,513.363892 612.305725,485.728729 615.834167,456.401733   C620.046814,421.388519 617.480652,386.934326 606.656372,353.308350   C595.752930,319.436829 576.648132,291.434021 546.505615,271.659515   C544.308655,270.218262 541.976379,268.983337 538.321716,266.840149   C544.155029,276.750671 548.118713,285.806885 549.646790,295.758453   C550.429749,300.857483 551.247314,305.945404 551.246887,311.125580   C551.241455,373.958282 551.245544,436.791016 551.219666,499.623718   C551.218994,501.271820 551.151855,502.991547 550.692322,504.553284   C549.660278,508.060150 547.414429,510.241089 543.497559,510.341980   C539.490234,510.445221 536.862122,508.683319 535.461609,504.927643   C534.495056,502.335663 534.762146,499.662811 534.761597,497.012238   C534.749329,435.012848 534.839233,373.013275 534.721741,311.014099   C534.664795,280.946594 514.743896,256.033203 485.595490,248.991211   C450.107910,240.417725 414.301270,264.814575 409.228455,300.973907   C408.788849,304.107513 408.284760,307.204254 408.285614,310.391174   C408.306213,387.057098 408.143463,463.723480 408.387238,540.388611   C408.450562,560.304443 417.452850,575.746887 435.439117,584.921997   C464.634644,599.815125 501.733368,578.334167 502.594025,545.563232   C503.416321,514.252075 502.852722,482.904175 502.870789,451.572418   C502.890686,417.072754 502.944244,382.572937 502.850647,348.073547   C502.811035,333.473785 494.475403,321.757233 481.482483,317.429260   C461.153870,310.657745 440.449249,325.143768 440.343231,346.767609   C440.098083,396.765900 440.231842,446.766052 440.204437,496.765442   C440.203339,498.764008 440.306183,500.786133 440.048553,502.756500   C439.375122,507.907104 436.147064,510.605438 431.270599,510.314178   C426.800110,510.047150 423.842499,507.023956 423.762695,501.994659   C423.601379,491.831879 423.692078,481.665070 423.678528,470.999939  z"/>
<path fill="#ffffff" opacity="1.000000" stroke="none" d=" M571.784180,777.180908   C562.179321,779.262817 553.132446,778.647888 544.337036,775.424194   C535.327393,772.122009 529.361023,765.830200 526.482849,756.583679   C525.370850,753.011230 526.444641,751.553162 530.122375,751.706787   C532.451111,751.804016 534.795227,751.842590 537.118286,751.690369   C540.087463,751.495789 541.914185,752.567627 543.553284,755.229431   C547.954102,762.376038 557.013550,765.459595 566.006836,763.361145   C573.766296,761.550720 578.414246,756.138550 579.945557,747.669495   C580.690308,743.550415 580.683105,739.531128 579.994385,735.376099   C565.255310,747.306946 549.789612,748.601624 537.078308,738.439758   C523.636475,727.693481 520.467834,713.161926 523.886841,697.050964   C526.774353,683.443604 534.815735,673.867554 548.723022,670.527588   C558.468140,668.187134 567.931641,669.247070 576.238892,675.626038   C577.283386,676.428101 578.388916,677.151367 579.481323,677.888672   C579.573975,677.951172 579.781799,677.843079 580.027222,677.797302   C581.643372,675.934875 579.732788,672.266174 582.550415,671.292786   C586.524536,669.919861 590.820007,670.449158 594.928467,670.938293   C597.667664,671.264465 597.100830,673.911072 597.107422,675.811157   C597.151917,688.642029 597.273254,701.475159 597.087463,714.303467   C596.921204,725.783813 597.882751,737.281311 596.513245,748.746399   C594.733032,763.650085 586.508667,772.970337 571.784180,777.180908  M569.659912,686.724854   C557.217529,680.674561 544.829285,685.762695 540.913330,698.517029   C538.937012,704.953735 539.182739,711.335327 541.713379,717.527344   C547.343628,731.303772 565.607117,734.415527 574.865540,723.250366   C584.058960,712.163635 581.963013,695.609070 569.659912,686.724854  z"/>
<path fill="#ffffff" opacity="1.000000" stroke="none" d=" M282.306732,731.292725   C273.189087,740.110657 262.214294,743.601257 250.265472,744.078491   C240.287735,744.477051 230.280014,744.066406 220.287582,744.184204   C216.432724,744.229553 214.977875,742.656494 214.990051,738.822144   C215.077393,711.338928 215.079330,683.855225 215.004074,656.372009   C214.993378,652.463867 216.155640,650.528809 220.451706,650.730042   C232.413986,651.290222 244.394943,650.178406 256.373962,651.564392   C276.411926,653.882751 291.825897,669.350159 294.440155,689.347595   C296.503998,705.134949 293.350159,719.084351 282.306732,731.292725  M276.729858,686.865967   C273.673798,674.957397 265.921051,668.139954 253.972397,665.868530   C247.858994,664.706421 241.689667,665.417908 235.544662,665.310120   C233.270706,665.270264 232.195511,666.357849 232.197556,668.640686   C232.214722,687.789307 232.223404,706.937866 232.205444,726.086487   C232.203094,728.584106 233.292709,729.722107 235.826035,729.681458   C240.487061,729.606567 245.164429,729.883118 249.809387,729.597229   C264.600006,728.687012 274.617615,720.388245 277.276215,706.515747   C278.466675,700.304016 278.437317,693.933044 276.729858,686.865967  z"/>
<path fill="#ffffff" opacity="1.000000" stroke="none" d=" M361.993134,743.251099   C360.376617,741.036133 361.405762,738.667847 360.249603,736.092651   C355.699829,739.806946 351.029449,743.132385 345.257446,744.316345   C324.489349,748.576782 306.621826,735.839722 303.782562,714.324280   C301.882050,699.922424 304.375793,686.568970 316.298523,676.816162   C328.501099,666.834473 344.810730,666.805664 357.484894,676.176880   C358.263367,676.752441 359.065491,677.295959 359.914276,677.895081   C362.017029,675.853577 359.447235,671.576904 362.878418,671.037354   C366.936432,670.399414 371.187195,670.634094 375.319305,670.949768   C377.889069,671.146057 377.316681,673.656128 377.331421,675.370728   C377.407440,684.202087 377.335876,693.034851 377.417725,701.866150   C377.530365,714.025635 377.629578,726.187012 377.955780,738.341675   C378.070190,742.603943 376.618103,744.616150 372.207733,744.187439   C368.916321,743.867432 365.544617,744.727905 361.993134,743.251099  M324.089691,721.343506   C328.416229,727.933228 334.698090,730.883118 342.354980,730.158264   C350.919434,729.347595 356.747742,724.501099 359.516602,716.321228   C361.543945,710.331848 361.404968,704.201965 359.558594,698.197144   C357.174744,690.444397 350.375732,684.960571 343.014069,684.273132   C333.926270,683.424377 327.035889,686.647949 322.947235,694.948120   C318.675842,703.619263 319.211487,712.256104 324.089691,721.343506  z"/>
<path fill="#ffffff" opacity="1.000000" stroke="none" d=" M494.751068,740.363770   C494.712036,739.143616 494.713928,738.309082 494.644745,737.480591   C494.619202,737.174927 494.426208,736.883179 494.146240,736.167664   C489.523621,739.427429 485.096313,742.884644 479.502472,744.204041   C460.991058,748.570435 443.582916,738.182495 438.710693,719.652100   C434.822754,704.865417 436.699402,690.997864 447.278778,679.517700   C458.573792,667.260864 477.422577,666.081177 490.989563,675.991455   C491.902374,676.658203 492.856201,677.268860 493.863953,677.955261   C495.811188,675.870483 493.536865,671.824097 497.037231,671.108521   C501.113953,670.275024 505.366608,670.351807 509.444672,671.178223   C511.806854,671.656982 511.149017,674.146729 511.158112,675.866272   C511.245392,692.359558 511.266510,708.853333 511.300110,725.346924   C511.309937,730.178467 511.231476,735.011292 511.323090,739.841064   C511.377899,742.731323 510.241760,744.224670 507.246124,744.160950   C504.415009,744.100708 501.581879,744.142273 498.750000,744.108154   C496.520752,744.081177 494.772064,743.438049 494.751068,740.363770  M455.479248,697.174927   C453.503021,702.157227 453.622864,707.406250 454.492554,712.449402   C455.844421,720.288574 460.066711,726.416931 467.881439,729.118958   C475.211243,731.653381 482.161957,730.322632 487.823547,724.982056   C493.373688,719.746643 495.032043,712.899597 494.733093,705.386902   C494.340759,695.528442 487.701782,686.555542 479.010864,684.543091   C469.080475,682.243713 460.711731,686.537048 455.479248,697.174927  z"/>
<path fill="#ffffff" opacity="1.000000" stroke="none" d=" M636.949768,729.247314   C646.165283,732.058899 654.111267,731.422607 659.908936,723.106506   C660.831909,721.782593 662.070190,721.046814 663.678345,721.018127   C668.135681,720.938721 672.606934,720.444946 677.227173,721.228394   C678.049683,725.035706 675.967407,727.795105 674.163330,730.408936   C666.064148,742.143799 654.379395,746.409912 640.720642,744.889832   C626.399353,743.295959 615.836060,735.980347 610.679871,722.042908   C607.663330,713.889038 607.225952,705.512451 609.233398,697.038513   C613.736145,678.031006 627.665710,668.493408 649.125854,669.702759   C665.240662,670.610779 677.191406,682.858643 679.431274,700.761169   C680.999268,713.293762 680.999329,713.289124 668.448608,713.286316   C655.966553,713.283508 643.484436,713.277283 631.002502,713.311462   C629.372559,713.315918 627.668884,712.956421 625.673645,714.146362   C626.239868,721.293579 630.164307,726.052246 636.949768,729.247314  M661.844910,695.591370   C657.815491,686.233826 649.650696,681.790894 640.348022,683.893494   C631.721191,685.843384 626.192200,691.917053 626.376831,699.719543   C637.608521,699.719543 648.856140,699.744507 660.103455,699.699524   C662.488281,699.690002 662.791138,698.222839 661.844910,695.591370  z"/>
<path fill="#ffffff" opacity="1.000000" stroke="none" d=" M708.110168,674.882385   C709.742737,678.206604 710.816162,675.311829 711.702515,674.698486   C721.291931,668.062317 735.878967,667.714966 745.765320,673.955750   C754.516113,679.479614 757.901917,687.982849 758.178772,697.698853   C758.572205,711.511353 758.227539,725.343445 758.370300,739.165405   C758.407288,742.754456 757.239258,744.266724 753.496155,744.222534   C739.709778,744.059692 741.914368,744.928162 741.784485,732.876465   C741.671387,722.385254 741.828796,711.890808 741.694519,701.400024   C741.553406,690.373413 735.600525,684.200195 725.345947,684.157104   C714.855652,684.112915 708.491028,690.382935 708.295227,701.377197   C708.078796,713.531738 708.001343,725.693726 708.177002,737.847900   C708.244995,742.558228 706.675598,744.371887 701.839172,744.251648   C689.254639,743.938782 691.691101,744.578796 691.632751,734.126770   C691.523987,714.641541 691.710144,695.153931 691.493286,675.670410   C691.448120,671.615906 692.768738,670.278198 696.608154,670.627014   C698.920532,670.837097 701.274841,670.774963 703.597778,670.631592   C706.487305,670.453125 708.034485,671.589233 708.110168,674.882385  z"/>
<path fill="#ffffff" opacity="1.000000" stroke="none" d=" M776.580139,706.923828   C776.588379,700.602966 776.533508,694.769714 776.628723,688.938965   C776.677246,685.964539 775.865601,683.982727 772.433167,684.319519   C766.595886,684.892151 767.651550,680.706726 767.660339,677.348633   C767.668640,674.174377 766.599365,670.150391 772.165649,670.657654   C775.432434,670.955383 776.667786,669.270386 776.622253,666.187134   C776.570557,662.688965 776.702698,659.187805 776.640686,655.690063   C776.591675,652.926392 777.906372,651.801514 780.582458,651.797363   C795.729980,651.773987 792.992004,650.619263 793.175720,663.102478   C793.286865,670.654480 793.207397,670.656006 800.853271,670.673584   C801.853088,670.675842 802.852905,670.670532 803.852722,670.672852   C810.981445,670.689514 810.714905,670.699829 810.985840,677.945862   C811.173706,682.969238 809.478455,684.580750 804.399170,684.430359   C793.168396,684.097778 793.165344,684.353149 793.188538,695.854370   C793.206055,704.519348 793.138367,713.185120 793.244568,721.848938   C793.317993,727.842041 795.108154,729.541931 801.021667,729.697144   C802.020874,729.723389 803.021240,729.703247 804.021057,729.705383   C811.107910,729.720459 811.107971,729.720520 811.076660,737.032104   C811.045959,744.204163 811.045532,744.170593 803.816101,744.248352   C799.477051,744.294983 795.165588,744.221008 790.899658,743.263672   C782.092468,741.286926 777.002441,735.417419 776.699097,726.389587   C776.486694,720.069702 776.607300,713.738525 776.580139,706.923828  z"/>
<path fill="#ffffff" opacity="1.000000" stroke="none" d=" M396.656677,697.020081   C396.656860,695.024902 396.546234,693.515869 396.677765,692.028320   C397.099762,687.255615 396.791260,683.259155 390.206635,684.194397   C388.137573,684.488220 387.249176,682.910828 387.128754,681.060120   C386.999207,679.069031 387.106903,677.063721 387.030426,675.067749   C386.911285,671.957825 388.210693,670.266479 391.463135,670.672607   C395.870056,671.222839 397.084259,668.952087 396.654083,665.069336   C396.581146,664.411072 396.631409,663.737610 396.643951,663.071594   C396.882965,650.397888 394.713715,652.014099 408.244476,651.770508   C411.856354,651.705444 413.330078,653.050354 413.305725,656.731201   C413.277252,661.026672 411.559296,666.322632 414.117279,669.371887   C416.832642,672.608704 422.280853,670.389282 426.519287,670.617676   C429.386902,670.772156 430.687744,671.586792 430.688782,674.713135   C430.691986,684.315613 430.795166,684.315613 421.067566,684.318298   C413.223114,684.320557 413.222260,684.320496 413.230988,692.197632   C413.241486,701.692627 413.216125,711.187927 413.277222,720.682617   C413.324585,728.040771 415.001007,729.626099 422.524719,729.700500   C422.857849,729.703796 423.191040,729.700256 423.524200,729.701477   C431.143463,729.729126 431.143463,729.729126 431.004456,737.541748   C430.891266,743.903992 430.625275,744.183044 424.092194,744.214722   C419.935608,744.234863 415.797150,744.321960 411.666077,743.419983   C402.316620,741.378723 396.853760,735.103516 396.701843,725.500977   C396.554260,716.174744 396.661438,706.844543 396.656677,697.020081  z"/>
</svg>